<svg xmlns="http://www.w3.org/2000/svg" viewBox="0 0 64 64" width="64" height="64">
  <!-- Фон -->
  <rect width="64" height="64" fill="#ffffff"/>
  
  <!-- Вертикальный штрихкод (повернутый на 90 градусов) -->
  <g transform="translate(32, 32) rotate(90)">
    <!-- Линии штрихкода -->
    <rect x="-20" y="-32" width="2" height="64" fill="#111827"/>
    <rect x="-17" y="-32" width="1" height="64" fill="#111827"/>
    <rect x="-15" y="-32" width="2.5" height="64" fill="#111827"/>
    <rect x="-11.5" y="-32" width="1" height="64" fill="#111827"/>
    <rect x="-9.5" y="-32" width="2" height="64" fill="#111827"/>
    <rect x="-6.5" y="-32" width="1" height="64" fill="#111827"/>
    <rect x="-4.5" y="-32" width="2.5" height="64" fill="#111827"/>
    <rect x="-1" y="-32" width="1" height="64" fill="#111827"/>
    <rect x="1" y="-32" width="2" height="64" fill="#111827"/>
    <rect x="4" y="-32" width="1" height="64" fill="#111827"/>
    <rect x="6" y="-32" width="2.5" height="64" fill="#111827"/>
    <rect x="9.5" y="-32" width="1" height="64" fill="#111827"/>
    <rect x="12" y="-32" width="2" height="64" fill="#111827"/>
    <rect x="15" y="-32" width="1.5" height="64" fill="#111827"/>
    <rect x="17.5" y="-32" width="2" height="64" fill="#111827"/>
  </g>
</svg>
